<?xml version="1.0" standalone="no"?>
<!DOCTYPE svg PUBLIC "-//W3C//DTD SVG 20010904//EN"
 "http://www.w3.org/TR/2001/REC-SVG-20010904/DTD/svg10.dtd">
<svg version="1.0" xmlns="http://www.w3.org/2000/svg"
 width="600.000000pt" height="600.000000pt" viewBox="0 0 600.000000 600.000000"
 preserveAspectRatio="xMidYMid meet">
<metadata>
Created by potrace 1.11, written by Peter Selinger 2001-2013
</metadata>
<g transform="translate(0.000000,600.000000) scale(0.100000,-0.100000)"
fill="#000000" stroke="none">
<path d="M1510 4363 c-148 -21 -305 -65 -405 -116 -181 -90 -312 -239 -365
-412 -26 -86 -31 -120 -30 -215 0 -129 23 -229 72 -322 38 -72 152 -193 228
-242 85 -55 235 -119 414 -176 486 -157 559 -186 657 -263 105 -84 150 -182
145 -315 -4 -99 -30 -158 -99 -225 -105 -102 -247 -149 -463 -153 -211 -4
-373 34 -582 137 -95 47 -278 168 -294 194 -4 7 -22 24 -41 38 l-33 25 -84
-163 -83 -163 38 -33 c61 -54 163 -127 253 -180 46 -27 86 -49 88 -49 2 0 27
-11 56 -25 211 -98 425 -143 664 -140 160 2 190 6 329 36 342 76 581 283 651
564 24 93 24 285 1 373 -32 120 -97 228 -191 315 -111 103 -305 192 -646 298
-419 131 -558 210 -629 359 -22 47 -26 69 -26 145 0 105 23 163 87 220 61 56
178 107 278 121 60 9 243 9 300 1 191 -29 353 -81 519 -168 106 -55 114 -58
127 -42 7 10 14 22 14 26 0 4 27 64 59 132 33 68 62 133 65 143 5 15 -8 27
-66 60 -144 82 -328 151 -503 188 -118 26 -404 41 -505 27z"/>
<path d="M4290 4354 c-342 -35 -639 -174 -876 -409 -211 -210 -354 -486 -390
-754 -3 -25 -8 -55 -11 -66 -5 -26 -5 -294 0 -320 3 -11 8 -45 13 -75 4 -30 8
-57 9 -60 1 -3 5 -21 9 -40 16 -72 69 -217 108 -295 67 -135 147 -244 263
-361 122 -122 242 -208 389 -278 138 -66 271 -105 456 -132 47 -7 277 -6 320
1 14 2 52 8 85 14 259 40 562 188 761 371 49 45 49 44 -12 110 -23 25 -71 76
-106 114 l-64 68 -54 -46 c-127 -109 -338 -222 -454 -242 -16 -3 -40 -10 -54
-15 -70 -27 -322 -32 -437 -10 -394 77 -724 387 -824 776 -6 22 -14 58 -18 80
-9 45 -9 323 0 371 80 436 425 780 857 855 87 15 240 18 325 7 208 -27 444
-139 605 -288 30 -27 55 -50 56 -50 1 0 39 46 86 103 47 56 97 116 112 134
l27 32 -33 31 c-47 45 -171 138 -221 166 -245 138 -432 195 -682 210 -55 3
-104 7 -110 8 -5 1 -66 -3 -135 -10z"/>
</g>
</svg>
